<svg width="95" height="56" viewBox="0 0 95 56" fill="none" xmlns="http://www.w3.org/2000/svg">
<rect width="95" height="56" rx="10" fill="black"/>
<g clip-path="url(#clip0_225_4402)">
<path d="M30.0494 18.9544C29.4049 19.7283 28.3734 20.3389 27.3421 20.2516C27.2132 19.2052 27.7181 18.0931 28.309 17.4063C28.9535 16.6105 30.0817 16.0436 30.9949 16C31.1023 17.0902 30.6832 18.1585 30.0494 18.9544ZM30.9842 20.4588C29.4909 20.3716 28.2124 21.32 27.5033 21.32C26.7836 21.32 25.6984 20.5024 24.5167 20.5242C22.9804 20.546 21.5515 21.429 20.7672 22.8354C19.1557 25.648 20.3483 29.8125 21.906 32.1019C22.6688 33.2356 23.582 34.4784 24.7852 34.4348C25.9241 34.3912 26.3753 33.6826 27.7505 33.6826C29.1364 33.6826 29.5339 34.4348 30.7372 34.413C31.9834 34.3912 32.7676 33.2793 33.5305 32.1455C34.4006 30.8591 34.7552 29.6053 34.7767 29.5399C34.7552 29.5181 32.3702 28.5916 32.3487 25.8006C32.3272 23.4677 34.2288 22.3557 34.3147 22.2903C33.2403 20.6768 31.5644 20.5024 30.9842 20.4588ZM39.6113 17.2973V34.2932H42.2111V28.4826H45.8102C49.0976 28.4826 51.4075 26.1933 51.4075 22.8791C51.4075 19.565 49.1406 17.2974 45.8961 17.2974L39.6113 17.2973ZM42.2111 19.5213H45.2085C47.4647 19.5213 48.7539 20.7423 48.7539 22.8899C48.7539 25.0375 47.4647 26.2694 45.1978 26.2694H42.2111V19.5213ZM56.156 34.4239C57.789 34.4239 59.3038 33.5845 59.9914 32.2545H60.0451V34.2931H62.4516V25.8333C62.4516 23.3805 60.5178 21.7997 57.5418 21.7997C54.7808 21.7997 52.7395 23.4023 52.6643 25.6044H55.0064C55.1998 24.5579 56.1559 23.871 57.4666 23.871C59.0567 23.871 59.9484 24.6233 59.9484 26.0078V26.9453L56.7038 27.1415C53.6849 27.3268 52.052 28.5806 52.052 30.761C52.052 32.9631 53.7387 34.4239 56.156 34.4239ZM56.8542 32.4071C55.4685 32.4071 54.5874 31.7312 54.5874 30.6955C54.5874 29.6272 55.4361 29.0058 57.0584 28.9077L59.9484 28.7224V29.6816C59.9484 31.2733 58.6163 32.4071 56.8543 32.4071M65.664 38.9154C68.1995 38.9154 69.392 37.9344 70.4341 34.9581L74.9999 21.9632H72.357L69.2952 32.0036H69.2415L66.1796 21.9632H63.4615L67.8662 34.3367L67.6299 35.0889C67.2325 36.3644 66.5878 36.855 65.4383 36.855C65.2342 36.855 64.8367 36.8332 64.6755 36.8114V38.85C64.8259 38.8936 65.4704 38.9154 65.6639 38.9154" fill="white"/>
</g>
<defs>
<clipPath id="clip0_225_4402">
<rect width="55" height="23" fill="white" transform="translate(20 16)"/>
</clipPath>
</defs>
</svg>
