<svg width="126" height="126" viewBox="0 0 126 126" fill="none" xmlns="http://www.w3.org/2000/svg">
<path d="M96.4688 0H29.5312C13.2216 0 0 13.2216 0 29.5312V96.4688C0 112.778 13.2216 126 29.5312 126H96.4688C112.778 126 126 112.778 126 96.4688V29.5312C126 13.2216 112.778 0 96.4688 0Z" fill="url(#paint0_radial_225_3631)"/>
<path d="M96.4688 0H29.5312C13.2216 0 0 13.2216 0 29.5312V96.4688C0 112.778 13.2216 126 29.5312 126H96.4688C112.778 126 126 112.778 126 96.4688V29.5312C126 13.2216 112.778 0 96.4688 0Z" fill="#FF70AA"/>
<path d="M63.0044 13.7812C49.6376 13.7812 47.9597 13.8398 42.7101 14.0785C37.4702 14.3187 33.8935 15.1481 30.7642 16.3652C27.5266 17.6223 24.7807 19.3041 22.0451 22.0406C19.307 24.7767 17.6252 27.5226 16.3643 30.7588C15.1436 33.8891 14.3133 37.4673 14.0775 42.7046C13.8428 47.9548 13.7812 49.6332 13.7812 63.0005C13.7812 76.3678 13.8403 78.0403 14.0785 83.2899C14.3197 88.5298 15.149 92.1065 16.3652 95.2358C17.6233 98.4734 19.3051 101.219 22.0416 103.955C24.7767 106.693 27.5226 108.379 30.7578 109.636C33.8896 110.853 37.4668 111.682 42.7056 111.922C47.9558 112.161 49.6322 112.22 62.9985 112.22C76.3668 112.22 78.0393 112.161 83.289 111.922C88.5288 111.682 92.1094 110.853 95.2412 109.636C98.4774 108.379 101.219 106.693 103.954 103.955C106.692 101.219 108.373 98.4734 109.635 95.2373C110.845 92.1065 111.675 88.5288 111.921 83.2909C112.157 78.0413 112.219 76.3678 112.219 63.0005C112.219 49.6332 112.157 47.9558 111.921 42.7056C111.675 37.4658 110.845 33.8896 109.635 30.7602C108.373 27.5226 106.692 24.7767 103.954 22.0406C101.216 19.3031 98.4784 17.6213 95.2383 16.3657C92.1006 15.1481 88.5219 14.3182 83.2821 14.0785C78.0319 13.8398 76.3604 13.7812 62.9892 13.7812H63.0044ZM58.589 22.651C59.8997 22.649 61.362 22.651 63.0044 22.651C76.1463 22.651 77.7036 22.6982 82.8932 22.934C87.6921 23.1535 90.2967 23.9553 92.0317 24.6291C94.3287 25.5209 95.9662 26.5875 97.6879 28.3106C99.4106 30.0333 100.477 31.6737 101.371 33.9708C102.045 35.7033 102.848 38.3079 103.066 43.1068C103.302 48.2954 103.353 49.8537 103.353 62.9892C103.353 76.1247 103.302 77.6834 103.066 82.8716C102.847 87.6704 102.045 90.2751 101.371 92.0081C100.479 94.3051 99.4106 95.9406 97.6879 97.6623C95.9652 99.385 94.3297 100.451 92.0317 101.343C90.2987 102.02 87.6921 102.82 82.8932 103.039C77.7046 103.275 76.1463 103.326 63.0044 103.326C49.862 103.326 48.3043 103.275 43.1161 103.039C38.3173 102.818 35.7126 102.016 33.9762 101.342C31.6796 100.45 30.0387 99.384 28.316 97.6613C26.5934 95.9387 25.5273 94.3021 24.633 92.0041C23.9592 90.2711 23.1564 87.6665 22.9379 82.8676C22.7021 77.679 22.6549 76.1207 22.6549 62.9769C22.6549 49.8335 22.7021 48.2831 22.9379 43.0945C23.1574 38.2956 23.9592 35.691 24.633 33.956C25.5253 31.659 26.5934 30.0185 28.3165 28.2959C30.0392 26.5732 31.6796 25.5066 33.9767 24.6128C35.7116 23.9361 38.3173 23.1363 43.1161 22.9158C47.6565 22.7105 49.4161 22.649 58.589 22.6387V22.651ZM89.2774 30.8232C86.0167 30.8232 83.3712 33.4663 83.3712 36.7275C83.3712 39.9883 86.0167 42.6338 89.2774 42.6338C92.5381 42.6338 95.1837 39.9883 95.1837 36.7275C95.1837 33.4668 92.5381 30.8213 89.2774 30.8213V30.8232ZM63.0044 37.7242C49.046 37.7242 37.7286 49.0416 37.7286 63.0005C37.7286 76.9594 49.046 88.2714 63.0044 88.2714C76.9634 88.2714 88.2768 76.9594 88.2768 63.0005C88.2768 49.0421 76.9624 37.7242 63.0034 37.7242H63.0044ZM63.0044 46.5939C72.0651 46.5939 79.411 53.9388 79.411 63.0005C79.411 72.0612 72.0651 79.4071 63.0044 79.4071C53.9433 79.4071 46.5983 72.0612 46.5983 63.0005C46.5983 53.9388 53.9433 46.5939 63.0044 46.5939Z" fill="white"/>
<defs>
<radialGradient id="paint0_radial_225_3631" cx="0" cy="0" r="1" gradientUnits="userSpaceOnUse" gradientTransform="translate(33.4687 135.704) rotate(-90) scale(124.875 116.144)">
<stop stop-color="#FFDD55"/>
<stop offset="0.1" stop-color="#FFDD55"/>
<stop offset="0.5" stop-color="#FF543E"/>
<stop offset="1" stop-color="#C837AB"/>
</radialGradient>
</defs>
</svg>
