<svg width="24" height="24" viewBox="0 0 24 24" fill="none" xmlns="http://www.w3.org/2000/svg">
<path d="M1.33789 7.25C1.33789 5.01083 1.33789 3.89124 2.03351 3.19562C2.72914 2.5 3.84872 2.5 6.08789 2.5C8.32704 2.5 9.44664 2.5 10.1423 3.19562C10.8379 3.89124 10.8379 5.01083 10.8379 7.25C10.8379 9.48915 10.8379 10.6088 10.1423 11.3044C9.44664 12 8.32704 12 6.08789 12C3.84872 12 2.72914 12 2.03351 11.3044C1.33789 10.6088 1.33789 9.48915 1.33789 7.25Z" stroke="#54585C" stroke-width="1.5" stroke-linejoin="round"/>
<path d="M8.33789 7.25C8.33789 8.49265 7.33054 9.5 6.08789 9.5C4.84525 9.5 3.83789 8.49265 3.83789 7.25C3.83789 6.00736 4.84525 5 6.08789 5C7.33054 5 8.33789 6.00736 8.33789 7.25Z" stroke="#54585C" stroke-width="1.5"/>
<path d="M4 15C4 18.3171 6.68286 21 10 21L9.14286 19.2857" stroke="#54585C" stroke-width="1.5" stroke-linecap="round" stroke-linejoin="round"/>
<path d="M20 9C20 5.68286 17.3171 3 14 3L14.8571 4.71429" stroke="#54585C" stroke-width="1.5" stroke-linecap="round" stroke-linejoin="round"/>
<path d="M13.25 16.75C13.25 14.5108 13.25 13.3912 13.9456 12.6956C14.6412 12 15.7608 12 18 12C20.2392 12 21.3588 12 22.0544 12.6956C22.75 13.3912 22.75 14.5108 22.75 16.75C22.75 18.9892 22.75 20.1088 22.0544 20.8044C21.3588 21.5 20.2392 21.5 18 21.5C15.7608 21.5 14.6412 21.5 13.9456 20.8044C13.25 20.1088 13.25 18.9892 13.25 16.75Z" stroke="#54585C" stroke-width="1.5" stroke-linejoin="round"/>
<path d="M20.25 16.75C20.25 17.9927 19.2427 19 18 19C16.7574 19 15.75 17.9927 15.75 16.75C15.75 15.5074 16.7574 14.5 18 14.5C19.2427 14.5 20.25 15.5074 20.25 16.75Z" stroke="#54585C" stroke-width="1.5"/>
</svg>
