<svg width="16" height="16" viewBox="0 0 16 16" fill="none" xmlns="http://www.w3.org/2000/svg">
<path d="M12.666 6.41347C12.666 8.13294 11.8195 9.45647 10.5315 10.3275C10.2315 10.5303 10.0815 10.6318 10.0075 10.7471C9.93348 10.8625 9.90822 11.0139 9.85775 11.3168L9.81848 11.5522C9.72982 12.0843 9.68548 12.3503 9.49895 12.5083C9.31248 12.6663 9.04275 12.6663 8.50328 12.6663H6.76228C6.22287 12.6663 5.95314 12.6663 5.76665 12.5083C5.58015 12.3503 5.53581 12.0843 5.44712 11.5522L5.40789 11.3168C5.35758 11.0149 5.33242 10.864 5.25914 10.7492C5.18586 10.6344 5.03554 10.5317 4.7349 10.3261C3.46062 9.45514 2.66602 8.13207 2.66602 6.41347C2.66602 3.60761 4.90459 1.33301 7.66602 1.33301C8.00848 1.33301 8.34288 1.36799 8.66602 1.43463" stroke="white" stroke-width="1.5" stroke-linecap="round" stroke-linejoin="round"/>
<path d="M10.9993 1.33301L11.1713 1.79769C11.3967 2.40702 11.5095 2.71169 11.7317 2.93393C11.954 3.15619 12.2587 3.26892 12.868 3.49439L13.3327 3.66634L12.868 3.83829C12.2587 4.06376 11.954 4.1765 11.7317 4.39875C11.5095 4.62099 11.3967 4.92566 11.1713 5.53499L10.9993 5.99967L10.8274 5.53499C10.6019 4.92566 10.4892 4.62099 10.2669 4.39875C10.0447 4.1765 9.74002 4.06376 9.13068 3.83829L8.66602 3.66634L9.13068 3.49439C9.74002 3.26892 10.0447 3.15619 10.2669 2.93393C10.4892 2.71169 10.6019 2.40702 10.8274 1.79769L10.9993 1.33301Z" stroke="white" stroke-width="1.5" stroke-linejoin="round"/>
<path d="M9.00065 12.667V13.3337C9.00065 13.9622 9.00065 14.2765 8.80538 14.4717C8.61012 14.667 8.29585 14.667 7.66732 14.667C7.03878 14.667 6.72452 14.667 6.52924 14.4717C6.33398 14.2765 6.33398 13.9622 6.33398 13.3337V12.667" stroke="white" stroke-width="1.5" stroke-linejoin="round"/>
</svg>
