<svg width="16" height="16" viewBox="0 0 16 16" fill="none" xmlns="http://www.w3.org/2000/svg">
<g clip-path="url(#clip0_225_7362)">
<path d="M9.50852 2.39925C8.79772 1.68842 8.44232 1.33301 8.00065 1.33301C7.55898 1.33301 7.20358 1.68842 6.49275 2.39925C6.0662 2.82581 5.6435 3.02385 5.03537 3.02385C4.50438 3.02385 3.74894 2.92086 3.33398 3.3393C2.92231 3.75443 3.02484 4.50677 3.02484 5.03438C3.02484 5.64253 2.82678 6.06522 2.40022 6.49179C1.6894 7.20261 1.33399 7.55801 1.33398 7.99967C1.334 8.44127 1.68941 8.79674 2.40024 9.50754C2.87809 9.98541 3.02484 10.2939 3.02484 10.9649C3.02484 11.4959 2.92186 12.2514 3.34031 12.6663C3.75544 13.078 4.50777 12.9755 5.03536 12.9755C5.68298 12.9755 5.99484 13.1021 6.45703 13.5643C6.85058 13.9579 7.37818 14.6663 8.00065 14.6663C8.62312 14.6663 9.15072 13.9579 9.54425 13.5643C10.0065 13.1021 10.3183 12.9755 10.9659 12.9755C11.4935 12.9755 12.2459 13.078 12.661 12.6663M12.661 12.6663C13.0794 12.2514 12.9764 11.4959 12.9764 10.9649C12.9764 10.2939 13.1232 9.98541 13.6011 9.50754C14.3119 8.79674 14.6673 8.44127 14.6673 7.99967C14.6673 7.55801 14.3119 7.20261 13.6011 6.49179M12.661 12.6663H12.6673" stroke="white" stroke-width="1.5" stroke-linecap="round" stroke-linejoin="round"/>
<path d="M5.33398 6.87147C5.33398 6.87147 6.83398 6.66634 8.00065 9.33301C8.00065 9.33301 11.3732 2.66634 14.6673 1.33301" stroke="white" stroke-width="1.5" stroke-linecap="round" stroke-linejoin="round"/>
</g>
<defs>
<clipPath id="clip0_225_7362">
<rect width="16" height="16" fill="white"/>
</clipPath>
</defs>
</svg>
