<svg width="90" height="90" viewBox="0 0 90 90" fill="none" xmlns="http://www.w3.org/2000/svg">
<g filter="url(#filter0_b_225_6706)">
<path d="M0 45C0 20.1472 20.1472 0 45 0C69.8528 0 90 20.1472 90 45C90 69.8528 69.8528 90 45 90C20.1472 90 0 69.8528 0 45Z" fill="white" fill-opacity="0.8"/>
<path d="M41.916 26.25L40.5356 26.7372C35.1632 28.6333 32.477 29.5814 30.9465 31.7446C29.416 33.9078 29.416 36.7565 29.416 42.4537V47.5463C29.416 53.2435 29.416 56.0921 30.9465 58.2554C32.477 60.4185 35.1632 61.3667 40.5356 63.2629L41.916 63.75" stroke="#EF4F4F" stroke-width="2" stroke-linecap="round"/>
<path d="M62.7494 44.9998H41.916M62.7494 44.9998C62.7494 43.5411 58.5946 40.8155 57.541 39.7915M62.7494 44.9998C62.7494 46.4586 58.5946 49.1842 57.541 50.2082" stroke="#EF4F4F" stroke-width="2" stroke-linecap="round" stroke-linejoin="round"/>
</g>
<defs>
<filter id="filter0_b_225_6706" x="-53.7" y="-53.7" width="197.4" height="197.4" filterUnits="userSpaceOnUse" color-interpolation-filters="sRGB">
<feFlood flood-opacity="0" result="BackgroundImageFix"/>
<feGaussianBlur in="BackgroundImageFix" stdDeviation="26.85"/>
<feComposite in2="SourceAlpha" operator="in" result="effect1_backgroundBlur_225_6706"/>
<feBlend mode="normal" in="SourceGraphic" in2="effect1_backgroundBlur_225_6706" result="shape"/>
</filter>
</defs>
</svg>
