<svg width="29" height="28" viewBox="0 0 29 28" fill="none" xmlns="http://www.w3.org/2000/svg">
<g filter="url(#filter0_b_225_6300)">
<rect x="0.5" width="28" height="28" rx="14" fill="#315DF4"/>
<path d="M20.5 13.4557V11.5204C20.5 10.427 20.5 9.88035 20.2306 9.52369C19.9612 9.16702 19.3521 8.99387 18.1338 8.64756C17.3015 8.41096 16.5677 8.12592 15.9815 7.86569C15.1823 7.5109 14.7827 7.3335 14.5 7.3335C14.2173 7.3335 13.8177 7.5109 13.0185 7.86569C12.4323 8.12592 11.6986 8.41096 10.8662 8.64756C9.64795 8.99387 9.03881 9.16702 8.76941 9.52369C8.5 9.88035 8.5 10.427 8.5 11.5204V13.4557C8.5 17.2058 11.8752 19.4558 13.5627 20.3464C13.9674 20.56 14.1697 20.6668 14.5 20.6668C14.8303 20.6668 15.0326 20.56 15.4373 20.3464C17.1248 19.4558 20.5 17.2058 20.5 13.4557Z" stroke="white" stroke-width="1.5" stroke-linecap="round"/>
</g>
<defs>
<filter id="filter0_b_225_6300" x="-53.2" y="-53.7" width="135.4" height="135.4" filterUnits="userSpaceOnUse" color-interpolation-filters="sRGB">
<feFlood flood-opacity="0" result="BackgroundImageFix"/>
<feGaussianBlur in="BackgroundImageFix" stdDeviation="26.85"/>
<feComposite in2="SourceAlpha" operator="in" result="effect1_backgroundBlur_225_6300"/>
<feBlend mode="normal" in="SourceGraphic" in2="effect1_backgroundBlur_225_6300" result="shape"/>
</filter>
</defs>
</svg>
