<svg width="64" height="64" viewBox="0 0 64 64" fill="none" xmlns="http://www.w3.org/2000/svg">
<path d="M31.2426 0.878611C31.6415 0.415857 32.3585 0.415858 32.7574 0.878612L35.0722 3.56384C35.4041 3.94884 35.972 4.02361 36.3923 3.73763L39.3232 1.74301C39.8283 1.39928 40.5209 1.58485 40.7864 2.13508L42.3274 5.32793C42.5483 5.78571 43.0775 6.00492 43.5574 5.83744L46.9048 4.66938C47.4816 4.46808 48.1025 4.82658 48.2166 5.42679L48.8787 8.90968C48.9736 9.40905 49.4281 9.75775 49.935 9.7202L53.4706 9.45828C54.0799 9.41315 54.5869 9.92013 54.5417 10.5294L54.2798 14.065C54.2422 14.5719 54.591 15.0264 55.0903 15.1213L58.5732 15.7834C59.1734 15.8975 59.5319 16.5184 59.3306 17.0952L58.1626 20.4426C57.9951 20.9225 58.2143 21.4517 58.6721 21.6726L61.8649 23.2136C62.4152 23.4791 62.6007 24.1717 62.257 24.6768L60.2624 27.6077C59.9764 28.028 60.0512 28.5959 60.4362 28.9278L63.1214 31.2426C63.5841 31.6415 63.5841 32.3585 63.1214 32.7574L60.4362 35.0722C60.0512 35.4041 59.9764 35.972 60.2624 36.3923L62.257 39.3232C62.6007 39.8283 62.4152 40.5209 61.8649 40.7864L58.6721 42.3274C58.2143 42.5483 57.9951 43.0775 58.1626 43.5574L59.3306 46.9048C59.5319 47.4816 59.1734 48.1025 58.5732 48.2166L55.0903 48.8787C54.591 48.9736 54.2422 49.4281 54.2798 49.935L54.5417 53.4706C54.5869 54.0799 54.0799 54.5869 53.4706 54.5417L49.935 54.2798C49.4281 54.2422 48.9736 54.591 48.8787 55.0903L48.2166 58.5732C48.1025 59.1734 47.4816 59.5319 46.9048 59.3306L43.5574 58.1626C43.0775 57.9951 42.5483 58.2143 42.3274 58.6721L40.7864 61.8649C40.5209 62.4152 39.8283 62.6007 39.3232 62.257L36.3923 60.2624C35.972 59.9764 35.4041 60.0512 35.0722 60.4362L32.7574 63.1214C32.3585 63.5841 31.6415 63.5841 31.2426 63.1214L28.9278 60.4362C28.5959 60.0512 28.028 59.9764 27.6077 60.2624L24.6768 62.257C24.1717 62.6007 23.4791 62.4152 23.2136 61.8649L21.6726 58.6721C21.4517 58.2143 20.9225 57.9951 20.4426 58.1626L17.0952 59.3306C16.5184 59.5319 15.8975 59.1734 15.7834 58.5732L15.1213 55.0903C15.0264 54.591 14.5719 54.2422 14.065 54.2798L10.5294 54.5417C9.92013 54.5869 9.41315 54.0799 9.45828 53.4706L9.7202 49.935C9.75775 49.4281 9.40905 48.9736 8.90968 48.8787L5.42679 48.2166C4.82658 48.1025 4.46808 47.4816 4.66938 46.9048L5.83744 43.5574C6.00492 43.0775 5.78571 42.5483 5.32793 42.3274L2.13508 40.7864C1.58485 40.5209 1.39928 39.8283 1.74301 39.3232L3.73763 36.3923C4.02361 35.972 3.94884 35.4041 3.56384 35.0722L0.878611 32.7574C0.415857 32.3585 0.415858 31.6415 0.878611 31.2426L3.56384 28.9278C3.94884 28.5959 4.02361 28.028 3.73763 27.6077L1.74301 24.6768C1.39928 24.1717 1.58485 23.4791 2.13508 23.2136L5.32793 21.6726C5.78571 21.4517 6.00492 20.9225 5.83744 20.4426L4.66938 17.0952C4.46808 16.5184 4.82658 15.8975 5.42679 15.7834L8.90968 15.1213C9.40905 15.0264 9.75775 14.5719 9.7202 14.065L9.45828 10.5294C9.41315 9.92013 9.92013 9.41315 10.5294 9.45828L14.065 9.7202C14.5719 9.75775 15.0264 9.40905 15.1213 8.90968L15.7834 5.42679C15.8975 4.82658 16.5184 4.46808 17.0952 4.66938L20.4426 5.83744C20.9225 6.00492 21.4517 5.78571 21.6726 5.32793L23.2136 2.13508C23.4791 1.58485 24.1717 1.39928 24.6768 1.74301L27.6077 3.73763C28.028 4.02361 28.5959 3.94884 28.9278 3.56384L31.2426 0.878611Z" fill="#CEFF95"/>
<path d="M16.2827 34.256V32.59H21.1267V34.256H16.2827ZM23.6595 37L26.6555 32.828L27.3415 32.618C27.2295 32.8327 27.0988 33.024 26.9495 33.192C26.8095 33.3507 26.6275 33.472 26.4035 33.556C26.1795 33.64 25.8855 33.682 25.5215 33.682C24.9428 33.682 24.4108 33.5467 23.9255 33.276C23.4495 32.996 23.0668 32.6133 22.7775 32.128C22.4882 31.6427 22.3435 31.0873 22.3435 30.462C22.3435 29.8273 22.5022 29.2487 22.8195 28.726C23.1368 28.194 23.5662 27.774 24.1075 27.466C24.6488 27.158 25.2508 27.004 25.9135 27.004C26.5855 27.004 27.1875 27.158 27.7195 27.466C28.2608 27.774 28.6855 28.1847 28.9935 28.698C29.3108 29.2113 29.4695 29.7853 29.4695 30.42C29.4695 31.288 29.1662 32.1653 28.5595 33.052L25.8295 37H23.6595ZM25.9135 32.226C26.2402 32.226 26.5295 32.1513 26.7815 32.002C27.0335 31.8527 27.2295 31.6473 27.3695 31.386C27.5188 31.1153 27.5935 30.8167 27.5935 30.49C27.5935 30.1447 27.5188 29.8413 27.3695 29.58C27.2295 29.3187 27.0335 29.1133 26.7815 28.964C26.5295 28.8053 26.2402 28.726 25.9135 28.726C25.5868 28.726 25.2928 28.8053 25.0315 28.964C24.7795 29.1133 24.5788 29.3187 24.4295 29.58C24.2895 29.8413 24.2195 30.1447 24.2195 30.49C24.2195 30.826 24.2895 31.1247 24.4295 31.386C24.5788 31.6473 24.7842 31.8527 25.0455 32.002C25.3068 32.1513 25.5962 32.226 25.9135 32.226ZM34.5425 37.14C33.7679 37.14 33.0679 36.93 32.4425 36.51C31.8172 36.09 31.3179 35.4973 30.9445 34.732C30.5805 33.9667 30.3985 33.0753 30.3985 32.058C30.3985 31.0407 30.5805 30.154 30.9445 29.398C31.3085 28.642 31.7985 28.054 32.4145 27.634C33.0399 27.214 33.7352 27.004 34.5005 27.004C35.2845 27.004 35.9845 27.214 36.6005 27.634C37.2259 28.054 37.7205 28.6467 38.0845 29.412C38.4485 30.168 38.6305 31.0593 38.6305 32.086C38.6305 33.1033 38.4485 33.9947 38.0845 34.76C37.7205 35.516 37.2305 36.104 36.6145 36.524C35.9985 36.9347 35.3079 37.14 34.5425 37.14ZM34.5145 35.418C34.9625 35.418 35.3499 35.292 35.6765 35.04C36.0032 34.788 36.2552 34.4147 36.4325 33.92C36.6192 33.4253 36.7125 32.8093 36.7125 32.072C36.7125 31.3347 36.6192 30.7187 36.4325 30.224C36.2552 29.7293 35.9985 29.3607 35.6625 29.118C35.3359 28.866 34.9485 28.74 34.5005 28.74C34.0619 28.74 33.6792 28.866 33.3525 29.118C33.0259 29.3607 32.7692 29.7293 32.5825 30.224C32.4052 30.7093 32.3165 31.3207 32.3165 32.058C32.3165 32.8047 32.4052 33.4253 32.5825 33.92C32.7692 34.4147 33.0259 34.788 33.3525 35.04C33.6792 35.292 34.0665 35.418 34.5145 35.418ZM41.6707 31.064C41.3067 31.064 40.9661 30.9753 40.6487 30.798C40.3407 30.6113 40.0981 30.364 39.9207 30.056C39.7434 29.748 39.6547 29.4073 39.6547 29.034C39.6547 28.6513 39.7434 28.3107 39.9207 28.012C40.0981 27.7133 40.3407 27.4753 40.6487 27.298C40.9567 27.1113 41.2974 27.018 41.6707 27.018C42.0534 27.018 42.3987 27.1113 42.7067 27.298C43.0241 27.4753 43.2714 27.7133 43.4487 28.012C43.6261 28.3107 43.7147 28.6513 43.7147 29.034C43.7147 29.4073 43.6214 29.748 43.4347 30.056C43.2574 30.364 43.0147 30.6113 42.7067 30.798C42.4081 30.9753 42.0627 31.064 41.6707 31.064ZM41.6707 29.734C41.8854 29.734 42.0534 29.6687 42.1747 29.538C42.2961 29.4073 42.3567 29.2393 42.3567 29.034C42.3567 28.8287 42.2914 28.6607 42.1607 28.53C42.0394 28.3993 41.8761 28.334 41.6707 28.334C41.4747 28.334 41.3161 28.3993 41.1947 28.53C41.0734 28.6607 41.0127 28.8287 41.0127 29.034C41.0127 29.2393 41.0734 29.4073 41.1947 29.538C41.3161 29.6687 41.4747 29.734 41.6707 29.734ZM45.9827 37.14C45.6094 37.14 45.2687 37.0513 44.9607 36.874C44.6527 36.6873 44.4054 36.4447 44.2187 36.146C44.0414 35.838 43.9527 35.4927 43.9527 35.11C43.9527 34.7273 44.0414 34.3867 44.2187 34.088C44.4054 33.7893 44.6481 33.5513 44.9467 33.374C45.2547 33.1873 45.6001 33.094 45.9827 33.094C46.3654 33.094 46.7107 33.1873 47.0187 33.374C47.3267 33.5513 47.5694 33.7893 47.7467 34.088C47.9334 34.3867 48.0267 34.7273 48.0267 35.11C48.0267 35.4927 47.9334 35.838 47.7467 36.146C47.5694 36.4447 47.3267 36.6873 47.0187 36.874C46.7201 37.0513 46.3747 37.14 45.9827 37.14ZM45.9827 35.81C46.1881 35.81 46.3561 35.7447 46.4867 35.614C46.6174 35.4833 46.6827 35.3153 46.6827 35.11C46.6827 34.914 46.6127 34.7507 46.4727 34.62C46.3421 34.4893 46.1787 34.424 45.9827 34.424C45.7867 34.424 45.6234 34.4893 45.4927 34.62C45.3714 34.7507 45.3107 34.914 45.3107 35.11C45.3107 35.3153 45.3714 35.4833 45.4927 35.614C45.6234 35.7447 45.7867 35.81 45.9827 35.81ZM39.9207 37L46.0247 27.158H47.7607L41.6567 37H39.9207Z" fill="#8D6DF3"/>
</svg>
