<svg width="30" height="32" viewBox="0 0 30 32" fill="none" xmlns="http://www.w3.org/2000/svg">
<rect y="2" width="30" height="30" rx="15"/>
<path d="M14.64 21.84C14.016 21.84 13.448 21.688 12.936 21.384C12.44 21.064 12.032 20.64 11.712 20.112C11.408 19.584 11.256 18.992 11.256 18.336C11.256 17.68 11.408 17.088 11.712 16.56C12.032 16.016 12.44 15.592 12.936 15.288C13.448 14.968 14.016 14.808 14.64 14.808C15.408 14.808 16.032 15 16.512 15.384C17.008 15.752 17.256 16.296 17.256 17.016V19.632C17.256 20.336 17.016 20.88 16.536 21.264C16.056 21.648 15.424 21.84 14.64 21.84ZM14.736 20.328C15.312 20.328 15.768 20.144 16.104 19.776C16.456 19.392 16.632 18.904 16.632 18.312C16.632 17.704 16.456 17.216 16.104 16.848C15.768 16.48 15.312 16.296 14.736 16.296C14.208 16.296 13.76 16.488 13.392 16.872C13.04 17.24 12.864 17.72 12.864 18.312C12.864 18.904 13.04 19.392 13.392 19.776C13.744 20.144 14.192 20.328 14.736 20.328ZM16.752 21.672V19.896L16.992 18.216L16.752 16.608V14.952H18.312V21.672H16.752ZM19.08 23.088L20.28 24.312C19.576 24.92 18.784 25.376 17.904 25.68C17.024 26 16.08 26.16 15.072 26.16C13.984 26.16 12.96 25.96 12 25.56C11.056 25.176 10.232 24.632 9.528 23.928C8.824 23.224 8.272 22.4 7.872 21.456C7.472 20.496 7.272 19.456 7.272 18.336C7.272 17.216 7.472 16.184 7.872 15.24C8.288 14.28 8.856 13.448 9.576 12.744C10.296 12.024 11.136 11.464 12.096 11.064C13.072 10.664 14.112 10.464 15.216 10.464C16.688 10.464 17.984 10.8 19.104 11.472C20.24 12.144 21.128 13.064 21.768 14.232C22.424 15.4 22.752 16.744 22.752 18.264C22.752 18.952 22.68 19.576 22.536 20.136C22.408 20.68 22.192 21.192 21.888 21.672L20.04 21.576C20.264 21.256 20.44 20.936 20.568 20.616C20.712 20.28 20.816 19.912 20.88 19.512C20.944 19.112 20.976 18.656 20.976 18.144C20.976 16.88 20.744 15.808 20.28 14.928C19.832 14.032 19.176 13.352 18.312 12.888C17.464 12.408 16.44 12.168 15.24 12.168C14.024 12.168 12.952 12.424 12.024 12.936C11.112 13.448 10.4 14.168 9.888 15.096C9.392 16.008 9.144 17.096 9.144 18.36C9.144 19.608 9.384 20.688 9.864 21.6C10.36 22.512 11.056 23.224 11.952 23.736C12.848 24.232 13.872 24.48 15.024 24.48C15.872 24.48 16.632 24.36 17.304 24.12C17.976 23.896 18.568 23.552 19.08 23.088ZM17.424 20.256H21.888V21.672H17.424V20.256Z" fill="white"/>
</svg>
