<svg width="95" height="56" viewBox="0 0 95 56" fill="none" xmlns="http://www.w3.org/2000/svg">
<rect x="0.5" y="0.5" width="94" height="55" rx="9.5" fill="white" stroke="#ECEFFF"/>
<g clip-path="url(#clip0_225_4535)">
<path d="M59.8216 23.2074C61.4435 23.2074 62.6969 23.6403 63.6554 24.5059C64.6138 25.3715 65.0561 26.5256 65.0561 27.9683V34.8931H62.9918V33.3064H62.9181C62.0334 34.6049 60.78 35.254 59.3055 35.254C58.052 35.254 56.9461 34.8933 56.0615 34.172C55.2505 33.4507 54.7343 32.4408 54.7343 31.3588C54.7343 30.2046 55.1767 29.2668 56.0615 28.5455C56.9461 27.8241 58.1996 27.5356 59.6741 27.5356C61.0011 27.5356 62.0334 27.7521 62.8443 28.257V27.7521C62.8443 27.0788 62.5874 26.4056 62.0736 25.9669L61.9595 25.8766C61.3698 25.3716 60.6325 25.0831 59.8216 25.0831C58.5682 25.0831 57.6097 25.588 56.9461 26.5979L55.0293 25.4435C56.2089 23.9287 57.7572 23.2074 59.8216 23.2074ZM49.4261 18.3022C50.749 18.3022 52.0062 18.7527 53.0114 19.5926L53.1862 19.7448C54.2183 20.6105 54.7343 21.909 54.7343 23.2795C54.7343 24.65 54.2183 25.8763 53.1862 26.814C52.154 27.7518 50.9006 28.2567 49.4261 28.2567L45.8872 28.1846V34.8931H43.6753V18.3022H49.4261ZM60.1164 29.2667C59.2317 29.2667 58.4944 29.4831 57.9047 29.9159C57.3148 30.2765 57.0199 30.7814 57.0199 31.4306C57.0199 32.0078 57.3149 32.5126 57.7572 32.8013C58.2733 33.1619 58.8631 33.3783 59.453 33.3783C60.2786 33.3783 61.1044 33.0641 61.7503 32.4944L61.8859 32.3684C62.6232 31.7193 62.9918 30.9258 62.9918 30.0601C62.3283 29.5552 61.3698 29.2666 60.1165 29.2666M49.5737 20.3218H45.8873V26.0929H49.5737C50.3846 26.0929 51.1956 25.8044 51.7117 25.2274C52.8913 24.1454 52.8913 22.342 51.7855 21.2599L51.7117 21.1877C51.1219 20.6107 50.3846 20.25 49.5736 20.3222M76.9999 23.5681L69.701 39.9427H67.4892L70.217 34.2441L65.4247 23.6403H67.7841L71.2492 31.7914H71.3229L74.7144 23.6403H76.9999V23.5681Z" fill="#5F6368"/>
<path d="M37.1136 26.742C37.1136 26.0928 37.0399 25.4436 36.9661 24.7944H27.7505V28.4733H32.985C32.7639 29.6274 32.1004 30.7094 31.0682 31.3587V33.7391H34.2384C36.0816 32.08 37.1137 29.6274 37.1137 26.7421" fill="#4285F4"/>
<path d="M27.7505 36.0475C30.4046 36.0475 32.6164 35.1819 34.2384 33.7392L31.0682 31.3588C30.1835 31.9358 29.0776 32.2965 27.7505 32.2965C25.2437 32.2965 23.0319 30.6374 22.2946 28.3291H19.0508V30.7816C20.7465 34.0277 24.0642 36.0475 27.7505 36.0475Z" fill="#34A853"/>
<path d="M22.2945 28.3292C21.8523 27.175 21.8523 25.8766 22.2945 24.6503V22.1978H19.0507C17.6498 24.8668 17.6498 28.0407 19.0507 30.7817L22.2945 28.3292Z" fill="#FBBC04"/>
<path d="M27.7506 20.7549C29.1514 20.7549 30.4784 21.2599 31.5107 22.1976L34.3123 19.4565C32.5427 17.8695 30.1836 16.9318 27.8242 17.0039C24.1379 17.0039 20.7466 19.0237 19.1245 22.2697L22.3685 24.7223C23.032 22.4139 25.2438 20.7549 27.7506 20.7549Z" fill="#EA4335"/>
</g>
<defs>
<clipPath id="clip0_225_4535">
<rect width="59" height="23" fill="white" transform="translate(18 17)"/>
</clipPath>
</defs>
</svg>
