<svg width="55" height="23" viewBox="0 0 55 23" fill="none" xmlns="http://www.w3.org/2000/svg">
<g clip-path="url(#clip0_360_2532)">
<path d="M10.0494 2.95436C9.40491 3.72829 8.37345 4.33893 7.34209 4.25162C7.21319 3.20518 7.71807 2.09311 8.309 1.40627C8.95353 0.610536 10.0817 0.0436019 10.9949 0C11.1023 1.09016 10.6832 2.15851 10.0494 2.95436ZM10.9842 4.45884C9.49085 4.37163 8.21242 5.31998 7.50333 5.31998C6.78361 5.31998 5.69843 4.50244 4.51668 4.52424C2.98044 4.54604 1.55152 5.42898 0.767228 6.83536C-0.844315 9.64801 0.348283 13.8125 1.90601 16.1019C2.66881 17.2356 3.582 18.4784 4.78524 18.4348C5.92412 18.3912 6.37529 17.6826 7.75051 17.6826C9.13636 17.6826 9.53393 18.4348 10.7372 18.413C11.9834 18.3912 12.7676 17.2793 13.5305 16.1455C14.4006 14.8591 14.7552 13.6053 14.7767 13.5399C14.7552 13.5181 12.3702 12.5916 12.3487 9.80062C12.3272 7.4677 14.2288 6.35574 14.3147 6.29034C13.2403 4.67685 11.5644 4.50244 10.9842 4.45884ZM19.6113 1.29727V18.2932H22.2111V12.4826H25.8102C29.0976 12.4826 31.4075 10.1933 31.4075 6.87907C31.4075 3.565 29.1406 1.29737 25.8961 1.29737L19.6113 1.29727ZM22.2111 3.52129H25.2085C27.4647 3.52129 28.7539 4.74225 28.7539 6.88986C28.7539 9.03747 27.4647 10.2694 25.1978 10.2694H22.2111V3.52129ZM36.156 18.4239C37.789 18.4239 39.3038 17.5845 39.9914 16.2545H40.0451V18.2931H42.4516V9.83332C42.4516 7.38049 40.5178 5.79971 37.5418 5.79971C34.7808 5.79971 32.7395 7.40229 32.6643 9.60441H35.0064C35.1998 8.55785 36.1559 7.87101 37.4666 7.87101C39.0567 7.87101 39.9484 8.62326 39.9484 10.0078V10.9453L36.7038 11.1415C33.6849 11.3268 32.052 12.5806 32.052 14.761C32.052 16.9631 33.7387 18.4239 36.156 18.4239ZM36.8542 16.4071C35.4685 16.4071 34.5874 15.7312 34.5874 14.6955C34.5874 13.6272 35.4361 13.0058 37.0584 12.9077L39.9484 12.7224V13.6816C39.9484 15.2733 38.6163 16.4071 36.8543 16.4071M45.664 22.9154C48.1995 22.9154 49.392 21.9344 50.4341 18.9581L54.9999 5.96321H52.357L49.2952 16.0036H49.2415L46.1796 5.96321H43.4615L47.8662 18.3367L47.6299 19.0889C47.2325 20.3644 46.5878 20.855 45.4383 20.855C45.2342 20.855 44.8367 20.8332 44.6755 20.8114V22.85C44.8259 22.8936 45.4704 22.9154 45.6639 22.9154" fill="white"/>
</g>
<defs>
<clipPath id="clip0_360_2532">
<rect width="55" height="23" fill="white"/>
</clipPath>
</defs>
</svg>
