<svg width="59" height="23" viewBox="0 0 59 23" fill="none" xmlns="http://www.w3.org/2000/svg">
<g clip-path="url(#clip0_360_2649)">
<path d="M41.8216 6.20745C43.4435 6.20745 44.6969 6.64028 45.6554 7.50593C46.6138 8.37148 47.0561 9.52565 47.0561 10.9683V17.8931H44.9918V16.3064H44.9181C44.0334 17.6049 42.78 18.254 41.3055 18.254C40.052 18.254 38.9461 17.8933 38.0615 17.172C37.2505 16.4507 36.7343 15.4408 36.7343 14.3588C36.7343 13.2046 37.1767 12.2668 38.0615 11.5455C38.9461 10.8241 40.1996 10.5356 41.6741 10.5356C43.0011 10.5356 44.0334 10.7521 44.8443 11.257V10.7521C44.8443 10.0788 44.5874 9.40557 44.0736 8.96688L43.9595 8.87657C43.3698 8.37159 42.6325 8.08308 41.8216 8.08308C40.5682 8.08308 39.6097 8.58802 38.9461 9.59792L37.0293 8.44352C38.2089 6.92868 39.7572 6.20745 41.8216 6.20745ZM31.4261 1.30225C32.749 1.30225 34.0062 1.75266 35.0114 2.59261L35.1862 2.74482C36.2183 3.61048 36.7343 4.90896 36.7343 6.27949C36.7343 7.65002 36.2183 8.87635 35.1862 9.81405C34.154 10.7518 32.9006 11.2567 31.4261 11.2567L27.8872 11.1846V17.8931H25.6753V1.30225H31.4261ZM42.1164 12.2667C41.2317 12.2667 40.4944 12.4831 39.9047 12.9159C39.3148 13.2765 39.0199 13.7814 39.0199 14.4306C39.0199 15.0078 39.3149 15.5126 39.7572 15.8013C40.2733 16.1619 40.8631 16.3783 41.453 16.3783C42.2786 16.3783 43.1044 16.0641 43.7503 15.4944L43.8859 15.3684C44.6232 14.7193 44.9918 13.9258 44.9918 13.0601C44.3283 12.5552 43.3698 12.2666 42.1165 12.2666M31.5737 3.32185H27.8873V9.09293H31.5737C32.3846 9.09293 33.1956 8.80442 33.7117 8.22739C34.8913 7.14537 34.8913 5.34202 33.7855 4.25989L33.7117 4.18773C33.1219 3.6107 32.3846 3.25003 31.5736 3.32219M58.9999 6.56812L51.701 22.9427H49.4892L52.217 17.2441L47.4247 6.64028H49.7841L53.2492 14.7914H53.3229L56.7144 6.64028H58.9999V6.56812Z" fill="#5F6368"/>
<path d="M19.1136 9.74199C19.1136 9.09281 19.0399 8.44362 18.9661 7.79443H9.75049V11.4733H14.985C14.7639 12.6274 14.1004 13.7094 13.0682 14.3587V16.7391H16.2384C18.0816 15.08 19.1137 12.6274 19.1137 9.7421" fill="#4285F4"/>
<path d="M9.75052 19.0475C12.4046 19.0475 14.6164 18.1819 16.2384 16.7392L13.0682 14.3588C12.1835 14.9358 11.0776 15.2965 9.75052 15.2965C7.24371 15.2965 5.0319 13.6374 4.29463 11.3291H1.05078V13.7816C2.74646 17.0277 6.06417 19.0475 9.75052 19.0475Z" fill="#34A853"/>
<path d="M4.29453 11.3292C3.85226 10.175 3.85226 8.87663 4.29453 7.6503V5.19775H1.05068C-0.350226 7.86677 -0.350226 11.0407 1.05068 13.7817L4.29453 11.3292Z" fill="#FBBC04"/>
<path d="M9.75061 3.7549C11.1514 3.7549 12.4784 4.25989 13.5107 5.19759L16.3123 2.45653C14.5427 0.869529 12.1836 -0.0681724 9.82425 0.00387172C6.1379 0.00387172 2.74655 2.0237 1.12451 5.26974L4.36847 7.72229C5.03199 5.41395 7.2438 3.7549 9.75061 3.7549Z" fill="#EA4335"/>
</g>
<defs>
<clipPath id="clip0_360_2649">
<rect width="59" height="23" fill="white"/>
</clipPath>
</defs>
</svg>
